<svg width="101" height="76" viewBox="0 0 101 76" fill="none" xmlns="http://www.w3.org/2000/svg">
<path d="M23.2292 30.5837C22.1234 30.5837 21.0624 30.7523 20.0062 30.906C20.3484 29.7556 20.7004 28.5855 21.2657 27.5343C21.8309 26.0071 22.7135 24.6833 23.5911 23.3495C24.3249 21.9066 25.6191 20.9298 26.5711 19.6952C27.5677 18.4953 28.9263 17.697 30.0022 16.7003C31.0584 15.6591 32.4417 15.1385 33.5425 14.4046C34.6928 13.7452 35.6944 13.0163 36.7654 12.6692L39.438 11.5685L41.7882 10.5917L39.3834 0.982422L36.4233 1.69642C35.4762 1.93442 34.3209 2.21209 33.007 2.54429C31.6633 2.79221 30.2303 3.4715 28.6337 4.0913C27.057 4.79538 25.2323 5.27138 23.5366 6.40188C21.8309 7.4828 19.8624 8.38521 18.127 9.83305C16.4462 11.3255 14.4182 12.6196 12.9208 14.5187C11.2845 16.2938 9.66811 18.1581 8.41366 20.2803C6.96086 22.3033 5.97415 24.5246 4.9329 26.7211C3.99082 28.9177 3.2322 31.1638 2.6124 33.3455C1.43728 37.7187 0.911696 41.8738 0.708404 45.4289C0.539821 48.989 0.638988 51.9491 0.847238 54.0911C0.921613 55.1026 1.06045 56.0844 1.15961 56.7637L1.28357 57.5967L1.41249 57.5669C2.29438 61.6865 4.32454 65.4721 7.2681 68.4861C10.2117 71.5 13.9484 73.619 18.0459 74.5979C22.1435 75.5769 26.4344 75.3757 30.4225 74.0178C34.4105 72.6599 37.9326 70.2007 40.5814 66.9247C43.2301 63.6487 44.8973 59.6897 45.39 55.5057C45.8827 51.3218 45.1809 47.0838 43.3656 43.2821C41.5503 39.4803 38.6959 36.2702 35.1324 34.023C31.5689 31.7758 27.442 30.5834 23.2292 30.5837ZM77.7708 30.5837C76.6651 30.5837 75.604 30.7523 74.5479 30.906C74.89 29.7556 75.2421 28.5855 75.8073 27.5343C76.3726 26.0071 77.2552 24.6833 78.1328 23.3495C78.8666 21.9066 80.1607 20.9298 81.1127 19.6952C82.1094 18.4953 83.4679 17.697 84.5439 16.7003C85.6 15.6591 86.9834 15.1385 88.0842 14.4046C89.2345 13.7452 90.2361 13.0163 91.3071 12.6692L93.9796 11.5685L96.3299 10.5917L93.9251 0.982422L90.9649 1.69642C90.0179 1.93442 88.8626 2.21209 87.5487 2.54429C86.2049 2.79221 84.772 3.4715 83.1754 4.0913C81.6036 4.80034 79.774 5.27138 78.0782 6.40684C76.3726 7.48775 74.4041 8.39017 72.6687 9.838C70.9878 11.3305 68.9599 12.6246 67.4624 14.5187C65.8262 16.2938 64.2098 18.1581 62.9553 20.2803C61.5025 22.3033 60.5158 24.5246 59.4746 26.7211C58.5325 28.9177 57.7739 31.1638 57.1541 33.3455C55.9789 37.7187 55.4534 41.8738 55.2501 45.4289C55.0815 48.989 55.1807 51.9491 55.3889 54.0911C55.4633 55.1026 55.6021 56.0844 55.7013 56.7637L55.8252 57.5967L55.9542 57.5669C56.8361 61.6865 58.8662 65.4721 61.8098 68.4861C64.7533 71.5 68.49 73.619 72.5876 74.5979C76.6851 75.5769 80.9761 75.3757 84.9641 74.0178C88.9522 72.6599 92.4743 70.2007 95.123 66.9247C97.7718 63.6487 99.439 59.6897 99.9317 55.5057C100.424 51.3218 99.7225 47.0838 97.9073 43.2821C96.092 39.4803 93.2375 36.2702 89.6741 34.023C86.1106 31.7758 81.9837 30.5834 77.7708 30.5837Z" fill="#FF9900"/>
</svg>
